<?xml version="1.0" encoding="utf-8"?>
<svg xmlns="http://www.w3.org/2000/svg"
	xmlns:xlink="http://www.w3.org/1999/xlink"
	width="23px" height="23px" viewBox="0 0 23 23">
<filter filterUnits="objectBoundingBox" x="0.00" y="0.00" width="100.00" height="100.00" id="filter0">
<feFlood flood-color="rgb(29,119,115)" result="coFloodOut1"/>
<feComposite in="coFloodOut1" in2="SourceAlpha" operator="in" result="coOverlay1"/>
<feBlend in="coOverlay1" in2="SourceGraphic" mode="normal" result="colorOverlay1"/>
</filter>
<path fillRule="evenodd" d="M 11.5 20.5C 16.46 20.5 20.5 16.46 20.5 11.5 20.5 6.54 16.46 2.5 11.5 2.5 6.54 2.5 2.5 6.54 2.5 11.5 2.5 16.46 6.54 20.5 11.5 20.5M 11.5 23C 5.15 23-0 17.85-0 11.5-0 5.15 5.15 0 11.5 0 17.85 0 23 5.15 23 11.5 23 17.85 17.85 23 11.5 23 11.5 23 11.5 23 11.5 23Z" fill="rgb(255,255,255)" filter="url(#filter0)"/></svg>